<svg width="124" height="38" viewBox="0 0 124 38" fill="none" xmlns="http://www.w3.org/2000/svg">
<path fill-rule="evenodd" clip-rule="evenodd" d="M25.0408 10.2156C24.572 9.74684 23.812 9.74684 23.3432 10.2156L23.3048 10.254C20.6051 7.98415 17.2686 6.86156 13.9389 6.88626C16.5189 8.38355 18.9629 10.2036 21.2124 12.3464L6.36671 27.1921L8.06436 28.8897L22.8996 14.0545C25.0992 16.4213 26.9478 18.9964 28.4453 21.7133C28.5465 18.2437 27.4011 14.7446 25.0091 11.945L25.0408 11.9133C25.5096 11.4445 25.5096 10.6844 25.0408 10.2156Z" fill="black"/>
<path d="M49.5312 30H42.5V7.375H49.8125C56.4219 7.375 60.3125 11.6094 60.3125 18.6562C60.3125 25.7188 56.4219 30 49.5312 30ZM45.3125 27.5H49.3438C54.8906 27.5 57.5625 24.1406 57.5625 18.6562C57.5625 13.1875 54.8906 9.875 49.625 9.875H45.3125V27.5ZM62.5938 30V13.0312H65.2812V30H62.5938ZM62.0625 8.4375C62.0469 7.4375 62.9062 6.64062 63.9375 6.65625C64.9688 6.64062 65.8281 7.4375 65.8438 8.4375C65.8281 9.42188 64.9688 10.2188 63.9375 10.2188C62.9062 10.2188 62.0469 9.42188 62.0625 8.4375ZM74.9375 36.7188C70.8281 36.7188 68.0469 34.9219 67.75 31.7812H70.5625C70.9219 33.5156 72.5312 34.375 74.9375 34.375C77.8438 34.375 79.625 33.1094 79.625 30.3125V26.875H79.4062C78.8281 27.8125 77.75 29.7344 74.4688 29.75C70.3438 29.7344 67.25 26.625 67.25 21.2812C67.25 16.0625 70.2344 12.8125 74.5 12.8125C77.7969 12.8125 78.8594 14.8125 79.4688 15.7188H79.6875V13.0312H82.3125V30.4688C82.2969 34.8438 79.0781 36.7188 74.9375 36.7188ZM69.9688 21.375C69.9688 24.8906 71.625 27.3438 74.8438 27.3438C77.9531 27.3438 79.6719 25.1094 79.6875 21.375C79.6719 17.7344 78 15.2188 74.8438 15.2188C71.5781 15.2188 69.9688 17.9531 69.9688 21.375ZM91.9688 36.7188C87.8594 36.7188 85.0781 34.9219 84.7812 31.7812H87.5938C87.9531 33.5156 89.5625 34.375 91.9688 34.375C94.875 34.375 96.6562 33.1094 96.6562 30.3125V26.875H96.4375C95.8594 27.8125 94.7812 29.7344 91.5 29.75C87.375 29.7344 84.2812 26.625 84.2812 21.2812C84.2812 16.0625 87.2656 12.8125 91.5312 12.8125C94.8281 12.8125 95.8906 14.8125 96.5 15.7188H96.7188V13.0312H99.3438V30.4688C99.3281 34.8438 96.1094 36.7188 91.9688 36.7188ZM87 21.375C87 24.8906 88.6562 27.3438 91.875 27.3438C94.9844 27.3438 96.7031 25.1094 96.7188 21.375C96.7031 17.7344 95.0312 15.2188 91.875 15.2188C88.6094 15.2188 87 17.9531 87 21.375ZM102.125 30V13.0312H104.812V30H102.125ZM101.594 8.4375C101.578 7.4375 102.438 6.64062 103.469 6.65625C104.5 6.64062 105.359 7.4375 105.375 8.4375C105.359 9.42188 104.5 10.2188 103.469 10.2188C102.438 10.2188 101.578 9.42188 101.594 8.4375ZM110.281 19.8125V30H107.594V13.0312H110.188V15.6875H110.406C111.203 13.9531 112.797 12.8125 115.375 12.8125C118.812 12.8125 121.109 14.9062 121.094 19.2188V30H118.406V19.4062C118.406 16.7812 116.969 15.2188 114.562 15.2188C112.094 15.2188 110.281 16.875 110.281 19.8125Z" fill="black"/>
</svg>
