<svg width="24" height="24" viewBox="0 0 24 24" fill="none" xmlns="http://www.w3.org/2000/svg">
<path fill-rule="evenodd" clip-rule="evenodd" d="M5.10561 3.00004C5.13078 3.00006 5.15619 3.00008 5.18187 3.00008H18.8181C18.8438 3.00008 18.8692 3.00006 18.8944 3.00004C19.2405 2.99977 19.5385 2.99953 19.8047 3.05196C20.8866 3.26501 21.7323 4.10227 21.9475 5.17332C22.0005 5.4369 22.0002 5.73195 22 6.07458C21.9999 6.09949 21.9999 6.12465 21.9999 6.15006C21.9999 6.17548 21.9999 6.20064 22 6.22555C22.0002 6.56818 22.0005 6.86323 21.9475 7.1268C21.758 8.06989 21.0797 8.8317 20.1818 9.14573V15.8172C20.1818 16.5417 20.1818 17.1396 20.1416 17.6267C20.0998 18.1325 20.0102 18.5976 19.7854 19.0344C19.4368 19.7118 18.8805 20.2625 18.1963 20.6076C17.7551 20.8302 17.2853 20.9189 16.7743 20.9602C16.2824 21 15.6784 21 14.9466 21H9.05336C8.32159 21 7.71764 21 7.22565 20.9602C6.71466 20.9189 6.24493 20.8302 5.80372 20.6076C5.1195 20.2625 4.56321 19.7118 4.21458 19.0344C3.98978 18.5976 3.90017 18.1325 3.85842 17.6267C3.81823 17.1396 3.81823 16.5417 3.81825 15.8172L3.81825 9.14573C2.92029 8.8317 2.24197 8.06989 2.05248 7.1268C1.99953 6.86324 1.99976 6.56819 2.00004 6.22556C2.00006 6.20065 2.00008 6.17549 2.00008 6.15006C2.00008 6.12464 2.00006 6.09948 2.00004 6.07457C1.99976 5.73194 1.99953 5.43689 2.05248 5.17333C2.26768 4.10227 3.1134 3.26501 4.19527 3.05196C4.4615 2.99953 4.75953 2.99977 5.10561 3.00004ZM5.63641 9.30005V15.78C5.63641 16.5509 5.63712 17.075 5.67055 17.4801C5.70311 17.8747 5.76214 18.0764 5.83458 18.2172C6.0089 18.5559 6.28704 18.8313 6.62915 19.0038C6.77133 19.0755 6.97515 19.134 7.37371 19.1662C7.78288 19.1993 8.31223 19.2 9.09093 19.2H14.9091C15.6878 19.2 16.2171 19.1993 16.6263 19.1662C17.0248 19.134 17.2287 19.0755 17.3708 19.0038C17.713 18.8312 17.9911 18.5559 18.1654 18.2172C18.2379 18.0764 18.2969 17.8747 18.3294 17.4801C18.3629 17.075 18.3636 16.5509 18.3636 15.78V9.30005H5.63641ZM19.1974 7.50006H4.80259C4.78546 7.49866 4.76818 7.49774 4.75078 7.49729C4.62029 7.49396 4.57209 7.48712 4.54998 7.48277C4.18935 7.41175 3.90745 7.13266 3.83571 6.77564C3.82265 6.71062 3.81825 6.61139 3.81825 6.15006C3.81825 5.68874 3.82265 5.58951 3.83571 5.52449C3.90745 5.16747 4.18935 4.88838 4.54998 4.81736C4.61566 4.80443 4.71589 4.80007 5.18187 4.80007H18.8181C19.2841 4.80007 19.3843 4.80443 19.45 4.81736C19.8106 4.88838 20.0926 5.16747 20.1643 5.52449C20.1774 5.58951 20.1818 5.68874 20.1818 6.15006C20.1818 6.61139 20.1774 6.71062 20.1643 6.77564C20.0926 7.13266 19.8106 7.41175 19.45 7.48277C19.4279 7.48712 19.3797 7.49396 19.2492 7.49729C19.2318 7.49774 19.2145 7.49866 19.1974 7.50006ZM9.27275 12.9C9.27275 12.403 9.67976 12 10.1818 12H13.8182C14.3202 12 14.7273 12.403 14.7273 12.9C14.7273 13.3971 14.3202 13.8 13.8182 13.8H10.1818C9.67976 13.8 9.27275 13.3971 9.27275 12.9Z" fill="#1D1D1D"/>
</svg>
