<svg width="24" height="24" viewBox="0 0 24 24" fill="none" xmlns="http://www.w3.org/2000/svg">
<path fill-rule="evenodd" clip-rule="evenodd" d="M5 5.91304C5 3.75193 6.76288 2 8.9375 2H15.0625C17.2371 2 19 3.75193 19 5.91304C19 7.14229 18.4296 8.23915 17.5376 8.95652C18.4296 9.6739 19 10.7708 19 12C19 14.1611 17.2371 15.913 15.0625 15.913C14.2531 15.913 13.5007 15.6703 12.875 15.2541V18.087C12.875 20.2481 11.1121 22 8.9375 22C6.76288 22 5 20.2481 5 18.087C5 16.8577 5.57036 15.7609 6.46242 15.0435C5.57036 14.3261 5 13.2292 5 12C5 10.7708 5.57035 9.67389 6.46242 8.95652C5.57035 8.23915 5 7.14229 5 5.91304ZM8.9375 9.82609C7.72938 9.82609 6.75 10.7994 6.75 12C6.75 13.2006 7.72938 14.1739 8.9375 14.1739H11.125V9.82609H8.9375ZM11.125 8.08696H8.9375C7.72938 8.08696 6.75 7.11366 6.75 5.91304C6.75 4.71242 7.72938 3.73913 8.9375 3.73913H11.125V8.08696ZM15.0625 8.08696C16.2706 8.08696 17.25 7.11366 17.25 5.91304C17.25 4.71242 16.2706 3.73913 15.0625 3.73913H12.875V8.08696H15.0625ZM15.0625 9.82609C13.8544 9.82609 12.875 10.7994 12.875 12C12.875 13.2006 13.8544 14.1739 15.0625 14.1739C16.2706 14.1739 17.25 13.2006 17.25 12C17.25 10.7994 16.2706 9.82609 15.0625 9.82609ZM11.125 15.913H8.9375C7.72938 15.913 6.75 16.8863 6.75 18.087C6.75 19.2876 7.72938 20.2609 8.9375 20.2609C10.1456 20.2609 11.125 19.2876 11.125 18.087V15.913Z" fill="currentColor"/>
</svg>
