<svg width="24" height="24" viewBox="0 0 24 24" fill="none" xmlns="http://www.w3.org/2000/svg">
<path fill-rule="evenodd" clip-rule="evenodd" d="M2 12C2 11.4477 2.44772 11 3 11L14.5858 11L10.2929 6.70711C9.90237 6.31658 9.90237 5.68342 10.2929 5.2929C10.6834 4.90237 11.3166 4.90237 11.7071 5.2929L17.7071 11.2929C18.0976 11.6834 18.0976 12.3166 17.7071 12.7071L11.7071 18.7071C11.3166 19.0976 10.6834 19.0976 10.2929 18.7071C9.90237 18.3166 9.90237 17.6834 10.2929 17.2929L14.5858 13L3 13C2.44772 13 2 12.5523 2 12ZM21 22C20.4477 22 20 21.5523 20 21L20 3C20 2.44772 20.4477 2 21 2C21.5523 2 22 2.44772 22 3L22 21C22 21.5523 21.5523 22 21 22Z" fill="currentColor"/>
</svg>
