<svg width="24" height="24" viewBox="0 0 24 24" fill="none" xmlns="http://www.w3.org/2000/svg">
<path fill-rule="evenodd" clip-rule="evenodd" d="M12 2C12.6137 2 13.1111 2.49746 13.1111 3.11111V9.31754L17.881 4.54766C18.3149 4.11374 19.0184 4.11374 19.4523 4.54766C19.8863 4.98158 19.8863 5.68509 19.4523 6.11901L14.6825 10.8889H20.8889C21.5025 10.8889 22 11.3864 22 12C22 12.6137 21.5025 13.1111 20.8889 13.1111H14.6825L19.4523 17.881C19.8863 18.3149 19.8863 19.0184 19.4523 19.4523C19.0184 19.8863 18.3149 19.8863 17.881 19.4523L13.1111 14.6825V20.8889C13.1111 21.5025 12.6137 22 12 22C11.3864 22 10.8889 21.5025 10.8889 20.8889V14.6825L6.11901 19.4523C5.68509 19.8863 4.98158 19.8863 4.54766 19.4523C4.11374 19.0184 4.11374 18.3149 4.54766 17.881L9.31754 13.1111H3.11111C2.49746 13.1111 2 12.6137 2 12C2 11.3864 2.49746 10.8889 3.11111 10.8889H9.31754L4.54766 6.11901C4.11374 5.68509 4.11374 4.98158 4.54766 4.54766C4.98158 4.11374 5.68509 4.11374 6.11901 4.54766L10.8889 9.31754V3.11111C10.8889 2.49746 11.3864 2 12 2Z" fill="#1D1D1D"/>
</svg>
