<svg width="24" height="24" viewBox="0 0 24 24" fill="none" xmlns="http://www.w3.org/2000/svg">
<path fill-rule="evenodd" clip-rule="evenodd" d="M5 9.27273C5 5.25611 8.13401 2 12 2C15.866 2 19 5.25611 19 9.27273C19 11.966 17.5909 14.3157 15.5 15.5723V15.6654C15.5 16.0642 15.5 16.4083 15.4813 16.6931C15.4616 16.9929 15.4183 17.2928 15.3002 17.5891C15.0338 18.2574 14.5227 18.7883 13.8795 19.0651C13.5944 19.1879 13.3057 19.2329 13.0171 19.2533C12.743 19.2727 12.4118 19.2727 12.028 19.2727H11.972C11.5882 19.2727 11.257 19.2727 10.9829 19.2533C10.6943 19.2329 10.4056 19.1879 10.1205 19.0651C9.47726 18.7883 8.96624 18.2574 8.69982 17.5891C8.58169 17.2928 8.53837 16.9929 8.51868 16.6931C8.49998 16.4083 8.49999 16.0642 8.5 15.6654L8.5 15.5723C6.40908 14.3157 5 11.966 5 9.27273ZM12 3.81818C9.1005 3.81818 6.75 6.26026 6.75 9.27273C6.75 11.4473 7.97471 13.3264 9.75046 14.2028C10.0556 14.3534 10.25 14.673 10.25 15.024V15.6364C10.25 16.0724 10.2505 16.3539 10.2646 16.5693C10.2782 16.7766 10.3015 16.8555 10.3166 16.8933C10.4054 17.1161 10.5758 17.2931 10.7902 17.3853C10.8266 17.401 10.9025 17.4252 11.102 17.4394C11.3094 17.4541 11.5803 17.4545 12 17.4545C12.4197 17.4545 12.6906 17.4541 12.898 17.4394C13.0975 17.4252 13.1734 17.401 13.2098 17.3853C13.4242 17.2931 13.5946 17.1161 13.6834 16.8933C13.6985 16.8555 13.7218 16.7766 13.7354 16.5693C13.7495 16.3539 13.75 16.0724 13.75 15.6364V15.024C13.75 14.673 13.9444 14.3534 14.2495 14.2028C16.0253 13.3264 17.25 11.4473 17.25 9.27273C17.25 6.26026 14.8995 3.81818 12 3.81818ZM8.9375 21.0909C8.9375 20.5888 9.32925 20.1818 9.8125 20.1818H14.1875C14.6707 20.1818 15.0625 20.5888 15.0625 21.0909C15.0625 21.593 14.6707 22 14.1875 22H9.8125C9.32925 22 8.9375 21.593 8.9375 21.0909Z" fill="#1D1D1D"/>
</svg>
