<svg width="24" height="24" viewBox="0 0 24 24" fill="none" xmlns="http://www.w3.org/2000/svg">
<path d="M2 16.2002V7.79981C2 6.97632 1.99898 6.29843 2.04395 5.74805C2.08988 5.18599 2.18827 4.6689 2.43555 4.1836L2.58985 3.90821C2.97414 3.2817 3.52513 2.7711 4.1836 2.43555L4.36719 2.34961C4.79892 2.16442 5.2562 2.08414 5.74805 2.04395C6.29843 1.99898 6.97632 2 7.79981 2H9L9.10254 2.00488C9.60667 2.05622 10 2.48232 10 3C10 3.51768 9.60667 3.94379 9.10254 3.99512L9 4H7.79981C6.94342 4 6.36117 4.00035 5.91113 4.03711C5.58253 4.06396 5.37418 4.10762 5.22461 4.16113L5.0918 4.21778C4.76256 4.38555 4.48707 4.64085 4.29492 4.9541L4.21778 5.0918C4.13809 5.2482 4.07293 5.47272 4.03711 5.91113C4.00035 6.36117 4 6.94342 4 7.79981V16.2002C4 17.0566 4.00035 17.6388 4.03711 18.0889C4.07293 18.5273 4.13809 18.7518 4.21778 18.9082L4.29492 19.0459C4.48707 19.3592 4.76256 19.6145 5.0918 19.7822L5.22461 19.8389C5.37418 19.8924 5.58253 19.936 5.91113 19.9629C6.36117 19.9997 6.94342 20 7.79981 20H9L9.10254 20.0049C9.60667 20.0562 10 20.4823 10 21C10 21.5177 9.60667 21.9438 9.10254 21.9951L9 22H7.79981C6.97632 22 6.29843 22.001 5.74805 21.9561C5.2562 21.9159 4.79892 21.8356 4.36719 21.6504L4.1836 21.5645C3.52513 21.2289 2.97414 20.7183 2.58985 20.0918L2.43555 19.8164C2.18827 19.3311 2.08988 18.814 2.04395 18.252C1.99898 17.7016 2 17.0237 2 16.2002ZM15.293 6.29297C15.6591 5.92685 16.2381 5.90426 16.6309 6.22461L16.707 6.29297L21.707 11.293C22.0976 11.6835 22.0976 12.3165 21.707 12.707L16.707 17.707C16.3165 18.0976 15.6835 18.0976 15.293 17.707C14.9024 17.3165 14.9024 16.6835 15.293 16.293L18.5859 13H9C8.44772 13 8 12.5523 8 12C8 11.4477 8.44772 11 9 11H18.5859L15.293 7.70703L15.2246 7.63086C14.9043 7.23809 14.9269 6.65909 15.293 6.29297Z" fill="black"/>
</svg>
