<svg width="24" height="24" viewBox="0 0 24 24" fill="none" xmlns="http://www.w3.org/2000/svg">
<g clip-path="url(#clip0_443_5379)">
<path d="M5.44888 5.50645C6.09695 6.01145 6.3402 5.97312 7.55816 5.89478L19.0385 5.23395C19.2817 5.23395 19.0793 5.00062 18.9985 4.96229L17.0908 3.63979C16.7259 3.36812 16.2386 3.05646 15.3055 3.13396L4.19008 3.91229C3.78525 3.95062 3.70359 4.14562 3.86517 4.30062L5.44888 5.50645ZM6.13778 8.07311V19.6598C6.13778 20.2823 6.46182 20.5156 7.19242 20.4764L19.8091 19.7764C20.5397 19.7381 20.6213 19.3098 20.6213 18.8039V7.29478C20.6213 6.78978 20.4189 6.51728 19.9715 6.55562L6.78673 7.29478C6.30023 7.33395 6.13778 7.56728 6.13778 8.07228V8.07311ZM18.5928 8.69395C18.6736 9.04395 18.5928 9.39394 18.228 9.43394L17.6198 9.55061V18.1039C17.0917 18.3764 16.6052 18.5323 16.1995 18.5323C15.5496 18.5323 15.3872 18.3373 14.9007 17.7548L10.9245 11.7664V17.5598L12.1824 17.8331C12.1824 17.8331 12.1824 18.5331 11.1678 18.5331L8.36869 18.6881C8.2879 18.5331 8.36869 18.1439 8.65277 18.0664L9.3825 17.8723V10.2114L8.37043 10.1331C8.28877 9.78311 8.49205 9.27811 9.05933 9.23895L12.0617 9.04478L16.2003 15.1106V9.74394L15.1448 9.62811C15.064 9.19978 15.3881 8.88895 15.7938 8.85061L18.5928 8.69395ZM3.25706 2.86229L14.8199 2.04563C16.2394 1.92896 16.6052 2.00646 17.4973 2.62896L21.1886 5.11729C21.7967 5.54479 22 5.66145 22 6.12812V19.7764C22 20.6314 21.676 21.1381 20.5405 21.2148L7.11163 21.9931C6.26027 22.0323 5.8537 21.9156 5.40718 21.3706L2.68891 17.9873C2.20242 17.3648 2 16.8989 2 16.3539V4.22229C2 3.52312 2.32491 2.93896 3.25706 2.86229Z" fill="currentColor"/>
</g>
<defs>
<clipPath id="clip0_443_5379">
<rect width="24" height="24" fill="white"/>
</clipPath>
</defs>
</svg>
