<svg width="24" height="24" viewBox="0 0 24 24" fill="none" xmlns="http://www.w3.org/2000/svg">
<path d="M6 4.98963C6 4.01847 6 3.53289 6.20249 3.26522C6.37889 3.03203 6.64852 2.88773 6.9404 2.8703C7.27544 2.8503 7.67946 3.11965 8.48752 3.65835L19.0031 10.6687C19.6708 11.1139 20.0046 11.3364 20.1209 11.6169C20.2227 11.8622 20.2227 12.1378 20.1209 12.3831C20.0046 12.6636 19.6708 12.8862 19.0031 13.3313L8.48752 20.3417C7.67946 20.8804 7.27544 21.1497 6.9404 21.1297C6.64852 21.1123 6.37889 20.968 6.20249 20.7348C6 20.4671 6 19.9815 6 19.0104V4.98963Z" fill="#1D1D1D"/>
</svg>
