<svg width="24" height="24" viewBox="0 0 24 24" fill="none" xmlns="http://www.w3.org/2000/svg">
<path fill-rule="evenodd" clip-rule="evenodd" d="M12 3.81818C7.48131 3.81818 3.81818 7.48131 3.81818 12C3.81818 16.5187 7.48131 20.1818 12 20.1818C16.5187 20.1818 20.1818 16.5187 20.1818 12C20.1818 7.48131 16.5187 3.81818 12 3.81818ZM2 12C2 6.47715 6.47715 2 12 2C17.5228 2 22 6.47715 22 12C22 17.5228 17.5228 22 12 22C6.47715 22 2 17.5228 2 12ZM12 5.63636C12.5021 5.63636 12.9091 6.04338 12.9091 6.54545V11.4382L16.0429 13.0051C16.492 13.2296 16.674 13.7757 16.4495 14.2247C16.2249 14.6738 15.6789 14.8558 15.2298 14.6313L11.5934 12.8131C11.2855 12.6591 11.0909 12.3443 11.0909 12V6.54545C11.0909 6.04338 11.4979 5.63636 12 5.63636Z" fill="#1D1D1D"/>
</svg>
