<svg width="24" height="24" viewBox="0 0 24 24" fill="none" xmlns="http://www.w3.org/2000/svg">
<path fill-rule="evenodd" clip-rule="evenodd" d="M5.18182 2C5.6839 2 6.09091 2.40701 6.09091 2.90909V4.27273H7.45455C7.95662 4.27273 8.36364 4.67974 8.36364 5.18182C8.36364 5.6839 7.95662 6.09091 7.45455 6.09091H6.09091V7.45455C6.09091 7.95662 5.6839 8.36364 5.18182 8.36364C4.67974 8.36364 4.27273 7.95662 4.27273 7.45455V6.09091H2.90909C2.40701 6.09091 2 5.6839 2 5.18182C2 4.67974 2.40701 4.27273 2.90909 4.27273H4.27273V2.90909C4.27273 2.40701 4.67974 2 5.18182 2ZM12.9091 2.90909C13.2852 2.90909 13.6226 3.14075 13.7576 3.49184L15.3341 7.5908C15.6072 8.30084 15.693 8.50545 15.8104 8.67054C15.9282 8.83618 16.0729 8.9809 16.2386 9.09869C16.4036 9.21607 16.6082 9.30189 17.3183 9.57498L21.4173 11.1515C21.7683 11.2865 22 11.6238 22 12C22 12.3762 21.7683 12.7135 21.4173 12.8485L17.3183 14.425C16.6082 14.6981 16.4036 14.7839 16.2386 14.9013C16.0729 15.0191 15.9282 15.1638 15.8104 15.3295C15.693 15.4945 15.6072 15.6992 15.3341 16.4092L13.7576 20.5082C13.6226 20.8592 13.2852 21.0909 12.9091 21.0909C12.5329 21.0909 12.1956 20.8592 12.0606 20.5082L10.4841 16.4092C10.211 15.6992 10.1252 15.4945 10.0078 15.3295C9.88999 15.1638 9.74527 15.0191 9.57963 14.9013C9.41455 14.7839 9.20994 14.6981 8.4999 14.425L4.40093 12.8485C4.04984 12.7135 3.81818 12.3762 3.81818 12C3.81818 11.6238 4.04984 11.2865 4.40093 11.1515L8.49989 9.57498C9.20994 9.30189 9.41454 9.21607 9.57963 9.09869C9.74527 8.9809 9.89 8.83618 10.0078 8.67054C10.1252 8.50545 10.211 8.30084 10.4841 7.5908L12.0606 3.49184C12.1956 3.14075 12.5329 2.90909 12.9091 2.90909ZM12.9091 6.35062L12.1811 8.24349C12.169 8.27483 12.1571 8.30576 12.1454 8.3363C11.924 8.9129 11.7567 9.34846 11.4896 9.72416C11.254 10.0555 10.9645 10.3449 10.6333 10.5805C10.2575 10.8476 9.82199 11.0149 9.24539 11.2363C9.21486 11.248 9.18392 11.2599 9.15258 11.272L7.25971 12L9.15258 12.728C9.18392 12.7401 9.21486 12.752 9.24539 12.7637C9.82199 12.9851 10.2575 13.1524 10.6333 13.4195C10.9645 13.6551 11.254 13.9445 11.4896 14.2758C11.7567 14.6515 11.924 15.0871 12.1454 15.6637C12.1571 15.6942 12.169 15.7252 12.1811 15.7565L12.9091 17.6494L13.6371 15.7565C13.6492 15.7252 13.6611 15.6942 13.6728 15.6637C13.8942 15.0871 14.0615 14.6515 14.3286 14.2758C14.5642 13.9446 14.8536 13.6551 15.1849 13.4195C15.5606 13.1524 15.9962 12.9851 16.5728 12.7637C16.6033 12.752 16.6343 12.7401 16.6656 12.728L18.5585 12L16.6656 11.272C16.6343 11.2599 16.6033 11.248 16.5728 11.2363C15.9962 11.0149 15.5606 10.8476 15.1849 10.5805C14.8536 10.3449 14.5642 10.0555 14.3286 9.72416C14.0615 9.34846 13.8942 8.9129 13.6728 8.3363C13.6611 8.30577 13.6492 8.27483 13.6371 8.24349L12.9091 6.35062ZM5.18182 15.6364C5.6839 15.6364 6.09091 16.0434 6.09091 16.5455V17.9091H7.45455C7.95662 17.9091 8.36364 18.3161 8.36364 18.8182C8.36364 19.3203 7.95662 19.7273 7.45455 19.7273H6.09091V21.0909C6.09091 21.593 5.6839 22 5.18182 22C4.67974 22 4.27273 21.593 4.27273 21.0909V19.7273H2.90909C2.40701 19.7273 2 19.3203 2 18.8182C2 18.3161 2.40701 17.9091 2.90909 17.9091H4.27273V16.5455C4.27273 16.0434 4.67974 15.6364 5.18182 15.6364Z" fill="#1D1D1D"/>
</svg>
